<?xml version="1.0" encoding="UTF-8"?>
<svg id="Layer_2" data-name="Layer 2" xmlns="http://www.w3.org/2000/svg" xmlns:xlink="http://www.w3.org/1999/xlink" viewBox="0 0 480.16 160.99">
  <defs>
    <style>
      .cls-1 {
        fill: #fff;
      }

      .cls-2 {
        fill: url(#New_Gradient_Swatch_2);
      }
    </style>
    <linearGradient id="New_Gradient_Swatch_2" data-name="New Gradient Swatch 2" x1="179.52" y1="-346.36" x2="59.61" y2="201.14" gradientUnits="userSpaceOnUse">
      <stop offset="0" stop-color="#9d582d"/>
      <stop offset="0" stop-color="#955229"/>
      <stop offset=".02" stop-color="#854622"/>
      <stop offset=".04" stop-color="#7c3f1e"/>
      <stop offset=".06" stop-color="#7a3d1d"/>
      <stop offset=".12" stop-color="#905129"/>
      <stop offset=".12" stop-color="#93532b"/>
      <stop offset=".17" stop-color="#b36433"/>
      <stop offset=".2" stop-color="#c27343"/>
      <stop offset=".21" stop-color="#c87849"/>
      <stop offset=".22" stop-color="#cf7f50"/>
      <stop offset=".25" stop-color="#c67647"/>
      <stop offset=".27" stop-color="#bb6a3b"/>
      <stop offset=".29" stop-color="#b56334"/>
      <stop offset=".3" stop-color="#b05f31"/>
      <stop offset=".33" stop-color="#a1562b"/>
      <stop offset=".36" stop-color="#9d5329"/>
      <stop offset=".37" stop-color="#995129"/>
      <stop offset=".42" stop-color="#934e29"/>
      <stop offset=".49" stop-color="#924e29"/>
      <stop offset=".55" stop-color="#9b552f"/>
      <stop offset=".58" stop-color="#a15a33"/>
      <stop offset=".62" stop-color="#af663d"/>
      <stop offset=".68" stop-color="#c87a4e"/>
      <stop offset=".72" stop-color="#df875f"/>
      <stop offset=".75" stop-color="#ee8f6a"/>
      <stop offset=".78" stop-color="#ee8f6a"/>
      <stop offset=".8" stop-color="#e48963"/>
      <stop offset=".83" stop-color="#ca7b50"/>
      <stop offset=".84" stop-color="#c5794d"/>
      <stop offset=".88" stop-color="#a75f37"/>
      <stop offset=".9" stop-color="#9a542e"/>
      <stop offset=".96" stop-color="#80472a"/>
      <stop offset=".97" stop-color="#83482b"/>
      <stop offset=".98" stop-color="#8c4e2e"/>
      <stop offset=".99" stop-color="#9c5934"/>
      <stop offset="1" stop-color="#ab623a"/>
    </linearGradient>
  </defs>
  <g id="Layer_1-2" data-name="Layer 1">
    <g>
      <g>
        <path class="cls-1" d="m262.79,78.02c-.79,4.16-1.78,8.29-2.58,12.43h-44.19c-7.73,0-12.73-6.31-11.1-13.99,2.14-10.08,4.16-20.14,6.34-30.22,2.18,1.27,4.16,2.55,6.34,3.82-3.57-4.49-6.94-8.99-10.5-13.48h64.6c-.99,4.16-1.78,8.29-2.77,12.43h-39.64c-1.59,8.12-3.35,16.25-5.15,24.36-.57,2.57,1.19,4.66,3.77,4.66h34.88Z"/>
        <path class="cls-1" d="m312.68,90.44l-1.98-7h-22l-4.76,7h-20.41l30.12-44.21,6.34,3.82-10.5-13.48h29.53l14.27,53.88h-20.61Zm-5.15-19.42l-2.97-10.64-7.14,10.64h10.11Z"/>
        <path class="cls-1" d="m395.42,36.56c7.73,0,12.56,6.31,10.9,13.97-.72,3.34-1.41,6.65-2.18,9.99-1.41,6.06-6.34,11.28-12.09,13.19,2.77,5.58,5.35,11.15,8.13,16.73h-20.21l-7.93-15.95h-12.29l-3.37,15.95h-18.63l9.31-44.21,6.34,3.82-10.5-13.48h52.52Zm-14.86,25.51c2.38,0,5.02-2.12,5.55-4.66.27-1.28.54-2.51.79-3.75.54-2.58-1.19-4.66-3.57-4.66h-18.23l-2.77,13.08h18.23Z"/>
        <path class="cls-1" d="m471.24,78.02c-.79,4.16-1.78,8.29-2.58,12.43h-45.58c-7.73,0-12.53-6.31-10.9-13.99,2.14-10.08,4.16-20.14,6.34-30.22,2.18,1.27,3.96,2.55,6.34,3.82-3.57-4.49-7.13-8.99-10.5-13.48h65.79c-.99,4.16-1.78,8.29-2.77,12.43h-40.82c-.6,2.78-1.19,5.53-1.78,8.29h36.07c-.79,4.16-1.78,8.31-2.58,12.45h-36.07c-.2,1.21-.54,2.43-.79,3.63-.54,2.58,1.19,4.66,3.57,4.66h36.27Z"/>
      </g>
      <g>
        <path class="cls-1" d="m433.64,123.18c.36.35.86.53,1.5.53s1.18-.2,1.62-.59c.43-.4.65-.93.65-1.6,0-.55-.18-.99-.54-1.3-.36-.31-.85-.47-1.46-.47-.67,0-1.23.19-1.66.58-.43.39-.65.9-.65,1.53,0,.54.18.98.54,1.34Z"/>
        <path class="cls-1" d="m427.99,104.01h-228.03l-2.68,3.45h178.62c-7.1,9.3-19.84,25.57-19.84,25.57h1.05s12.74-16.28,19.84-25.57h4.74c-7.1,9.3-19.84,25.57-19.84,25.57h2.1s12.74-16.28,19.84-25.57h4.76c-7.1,9.3-19.84,25.57-19.84,25.57h4.21s12.74-16.28,19.84-25.57h4.71c-7.1,9.3-19.84,25.57-19.84,25.57h8.42s12.74-16.28,19.84-25.57h4.75c-7.1,9.3-19.84,25.57-19.84,25.57h48.25c4.08,0,7.92-1.87,10.42-5.08,5.29-6.77,14.44-18.54,18.49-23.94h-39.98Zm-.33,9.62l-4.02,3.61c1.02.28,1.81.77,2.37,1.45.56.68.84,1.51.84,2.48,0,1.09-.33,2.07-.99,2.93-.66.86-1.56,1.54-2.72,2.03-1.15.49-2.45.74-3.9.74-1.15,0-2.24-.15-3.25-.44-1.02-.29-1.9-.72-2.65-1.29l2.06-3.16c.55.42,1.19.74,1.92.96.73.22,1.46.34,2.21.34.91,0,1.61-.16,2.1-.48.49-.32.73-.77.73-1.36,0-.88-.7-1.32-2.09-1.32h-1.91l.56-2.8,3.37-3.03h-6.15l.7-3.43h11.35l-.54,2.78Zm9.13,2.92c.87,0,1.68.18,2.45.54.76.36,1.38.88,1.84,1.56.46.68.7,1.49.7,2.43,0,1.17-.28,2.19-.85,3.06-.57.87-1.35,1.55-2.35,2.02-1,.47-2.13.71-3.4.71s-2.42-.24-3.4-.73c-.98-.49-1.75-1.21-2.3-2.17s-.83-2.12-.83-3.5c0-1.62.35-3.18,1.05-4.7.7-1.52,1.79-2.77,3.26-3.76,1.47-.99,3.29-1.48,5.44-1.48.94,0,1.82.1,2.65.3.82.2,1.5.48,2.02.84l-2.02,3.14c-.75-.51-1.71-.76-2.89-.76s-2.22.32-2.98.95c-.76.64-1.29,1.49-1.59,2.57.82-.69,1.89-1.03,3.21-1.03Z"/>
      </g>
      <g>
        <path class="cls-1" d="m207.49,123.9h-5.22l-1.42,2.38h-3.66l7.87-12.27h3.42l2.96,12.27h-3.45l-.49-2.38Zm-.53-2.56l-.82-3.98-2.35,3.98h3.17Z"/>
        <path class="cls-1" d="m217.15,125.99c-.77-.36-1.36-.87-1.77-1.53-.41-.67-.61-1.45-.61-2.35,0-.37.05-.81.14-1.3l1.37-6.8h3.47l-1.35,6.75c-.07.35-.1.67-.1.96,0,1.29.68,1.93,2.03,1.93.74,0,1.32-.22,1.74-.67.43-.45.74-1.19.95-2.22l1.35-6.75h3.42l-1.38,6.96c-.75,3.7-2.91,5.55-6.5,5.55-1.06,0-1.98-.18-2.75-.53Z"/>
        <path class="cls-1" d="m233.76,116.77h-3.77l.56-2.75h10.99l-.56,2.75h-3.75l-1.91,9.51h-3.47l1.91-9.51Z"/>
        <path class="cls-1" d="m245.35,125.84c-.92-.46-1.62-1.09-2.12-1.91-.5-.82-.74-1.75-.74-2.8,0-1.4.32-2.66.97-3.78.65-1.12,1.55-2,2.72-2.63,1.16-.63,2.48-.95,3.97-.95,1.24,0,2.32.23,3.23.68.92.46,1.62,1.09,2.12,1.91.5.82.74,1.75.74,2.8,0,1.4-.32,2.66-.97,3.78-.65,1.12-1.55,2-2.72,2.63-1.16.63-2.49.95-3.97.95-1.24,0-2.32-.23-3.23-.68Zm5.56-2.77c.58-.39,1.03-.9,1.35-1.55.32-.65.47-1.36.47-2.15,0-.83-.25-1.49-.76-1.99-.51-.5-1.22-.74-2.13-.74-.77,0-1.45.19-2.03.58-.58.39-1.03.9-1.35,1.55-.32.65-.47,1.36-.47,2.15,0,.83.25,1.49.76,1.99.51.5,1.22.74,2.13.74.77,0,1.45-.19,2.03-.58Z"/>
        <path class="cls-1" d="m267.07,126.16c-.91-.25-1.65-.56-2.23-.95l1.37-2.59c.62.4,1.28.7,1.98.9.7.2,1.4.31,2.1.31s1.18-.1,1.55-.29.55-.46.55-.8c0-.29-.17-.52-.5-.68-.33-.16-.85-.34-1.55-.53-.79-.21-1.45-.42-1.98-.64-.53-.22-.98-.55-1.36-.99-.38-.44-.57-1.03-.57-1.75,0-.88.24-1.64.72-2.3.48-.66,1.16-1.17,2.05-1.53.89-.36,1.93-.54,3.12-.54.88,0,1.69.09,2.45.27.76.18,1.41.44,1.96.78l-1.26,2.58c-.48-.3-1.01-.53-1.59-.69-.58-.16-1.17-.24-1.78-.24-.69,0-1.23.11-1.62.33s-.59.51-.59.86c0,.3.17.54.51.7s.86.34,1.58.53c.79.2,1.45.4,1.97.61.52.21.97.53,1.34.96.37.43.56,1,.56,1.7,0,.86-.24,1.63-.73,2.29-.49.66-1.17,1.17-2.07,1.53-.89.36-1.93.54-3.11.54-1.02,0-1.98-.12-2.89-.37Z"/>
        <path class="cls-1" d="m283.8,116.7l-.4,2.07h5.45l-.51,2.59h-5.47l-.44,2.24h6.43l-.56,2.68h-9.83l2.45-12.27h9.6l-.54,2.68h-6.19Z"/>
        <path class="cls-1" d="m303.74,120.82c-.6.81-1.43,1.4-2.51,1.78l2.09,3.68h-3.63l-1.82-3.26h-1.75l-.65,3.26h-3.47l2.45-12.27h5.24c1.57,0,2.78.34,3.64,1.03.86.69,1.3,1.65,1.3,2.87,0,1.12-.3,2.09-.89,2.9Zm-3.12-3.7c-.34-.25-.81-.38-1.42-.38h-1.82l-.74,3.59h2.07c.77,0,1.37-.18,1.79-.54s.63-.88.63-1.54c0-.5-.17-.88-.51-1.13Z"/>
        <path class="cls-1" d="m321.6,114.01l-7.69,12.27h-3.42l-2.79-12.27h3.56l1.75,7.97,5.01-7.97h3.57Z"/>
        <path class="cls-1" d="m324.09,114.01h3.47l-2.45,12.27h-3.47l2.45-12.27Z"/>
        <path class="cls-1" d="m332.76,125.85c-.93-.45-1.65-1.08-2.16-1.9-.5-.82-.75-1.76-.75-2.82,0-1.4.32-2.66.97-3.78.65-1.12,1.56-2,2.72-2.63s2.5-.95,4-.95c1.13,0,2.14.2,3.01.6.88.4,1.53.97,1.96,1.71l-2.51,2c-.6-.96-1.5-1.44-2.7-1.44-.78,0-1.47.18-2.07.55-.6.37-1.06.88-1.39,1.52-.33.65-.5,1.38-.5,2.18s.27,1.5.81,2c.54.5,1.27.75,2.19.75,1.17,0,2.17-.47,3-1.42l2.05,2.02c-.67.81-1.44,1.39-2.33,1.74-.89.36-1.9.53-3.05.53-1.24,0-2.32-.23-3.26-.67Z"/>
        <path class="cls-1" d="m349.34,116.7l-.4,2.07h5.45l-.51,2.59h-5.47l-.44,2.24h6.43l-.56,2.68h-9.83l2.45-12.27h9.6l-.54,2.68h-6.19Z"/>
      </g>
      <path class="cls-1" d="m177.24,25.62l-22.07-22.05c-2.29-2.28-5.39-3.57-8.62-3.57H0c7.19,9.59,19.46,25.25,27.51,35.46L5.24,136.44l76.58,24.55,76.58-24.55,22.12-99.55c.9-4.07-.33-8.32-3.28-11.27Z"/>
      <path class="cls-2" d="m140.15,24.93H37.52c6.25,8.34,12.87,16.69,19.5,25.03-4.05-2.36-7.72-4.72-11.77-7.08-.97,4.5-1.92,9-2.87,13.5h34.54c.6-2.79,1.2-5.58,1.8-8.38h40.09c4.05,0,6.96,3.46,6.25,7.71-.03.16,0,.32,0,.47-1.47,4.01-5.52,7.2-9.56,7.2H21.35l-5.09,23.1h94.46c4.05,0,6.62,3.19,6.25,7.2,0,.16.04.32,0,.47-1.07,4.26-5.52,7.71-9.56,7.71h-40.09c.6-2.79,1.2-5.59,1.8-8.38h-34.52c-2.19,10.48-4.39,20.96-6.64,31.45h90.85c14.71,0,28.68-11.69,31.63-25.97.36-1.73.74-3.5,1.1-5.27,1.47-7.08,0-13.85-4.05-18.73,6.25-4.92,10.3-11.69,12.14-18.77.37-1.73.74-3.5,1.1-5.27,2.95-14.29-5.88-25.97-20.6-25.97Z"/>
    </g>
  </g>
</svg>