<?xml version="1.0" encoding="UTF-8"?>
<svg id="Layer_2" data-name="Layer 2" xmlns="http://www.w3.org/2000/svg" viewBox="0 0 177.43 123.43">
  <defs>
    <style>
      .cls-1 {
        fill: #fff;
      }

      .cls-2 {
        fill: none;
        stroke: #fff;
        stroke-miterlimit: 10;
        stroke-width: 2px;
      }
    </style>
  </defs>
  <g id="Layer_1-2" data-name="Layer 1">
    <g>
      <path class="cls-1" d="m.19,44.44L4.39,15.1C5.62,6.37,11.22,3.4,19.22,3.4s12.88,2.97,11.64,11.7l-4.2,29.34c-1.23,8.73-6.83,11.7-14.84,11.7S-1.04,53.17.19,44.44Zm13.04,1.85c.78,0,1.51-.45,1.74-1.9l4.03-29.22c.22-1.46-.39-1.9-1.18-1.9s-1.51.45-1.74,1.9l-4.03,29.22c-.22,1.46.39,1.9,1.18,1.9Z"/>
      <path class="cls-1" d="m29.25,44.44l5.65-40.42h11.81l-5.71,40.37c-.17,1.46.45,1.9,1.29,1.9.78,0,1.46-.45,1.62-1.9l5.71-40.37h11.81l-5.71,40.42c-1.23,8.73-6.83,11.7-14.84,11.7s-12.93-2.97-11.64-11.7Z"/>
      <path class="cls-1" d="m72.52,41.02h-2.02l-2.07,14.5h-11.81l7.28-51.51h15.68c8.85,0,10.25,3.14,9.07,11.7l-2.07,14.33c-.5,3.64-2.02,6.16-4.09,7.89l1.62,17.58h-10.47l-1.12-14.5Zm.22-8.34c1.46,0,2.07-.56,2.24-1.96l2.07-14.89c.22-1.46-.17-2.01-1.62-2.01h-1.12l-2.63,18.87h1.06Z"/>
      <path class="cls-1" d="m.58,111.67l1.06-7.5h11.31l-1.06,7.45c-.17,1.46.39,1.9,1.34,1.9.84,0,1.46-.45,1.62-1.9l1.01-7c.78-5.21-14.11-1.4-12.26-14.67l1.06-7.73c1.18-8.62,6.66-11.64,14.56-11.64s12.48,3.02,11.25,11.64l-1.06,7.5h-11.31l1.06-7.45c.17-1.46-.39-1.9-1.29-1.9-.84,0-1.46.45-1.68,1.9l-1.01,7c-.73,5.21,14.22,1.4,12.37,14.67l-1.06,7.73c-1.18,8.62-6.66,11.65-14.61,11.65s-12.54-3.02-11.31-11.65Z"/>
      <path class="cls-1" d="m35.07,71.2h18.59l-1.4,9.85h-6.77l-1.51,10.86h6.61l-1.4,9.74h-6.61l-1.57,11.2h6.77l-1.4,9.85h-18.59l7.28-51.51Z"/>
      <path class="cls-1" d="m64.51,108.2h-2.02l-2.07,14.5h-11.81l7.28-51.51h15.68c8.85,0,10.25,3.13,9.07,11.7l-2.07,14.33c-.5,3.64-2.02,6.16-4.09,7.89l1.62,17.58h-10.47l-1.12-14.5Zm.22-8.34c1.46,0,2.07-.56,2.24-1.96l2.07-14.89c.22-1.46-.17-2.01-1.62-2.01h-1.12l-2.63,18.87h1.06Z"/>
      <path class="cls-1" d="m95.03,71.2l-2.8,40.81h1.23l8.73-40.81h11.25l-12.04,51.51h-20.15l2.52-51.51h11.25Z"/>
      <path class="cls-1" d="m115.52,71.2h11.81l-7.28,51.51h-11.81l7.28-51.51Z"/>
      <path class="cls-1" d="m124.08,111.73l4.14-29.45c1.29-8.73,6.83-11.7,14.89-11.7s12.88,2.97,11.64,11.7l-1.85,12.99h-11.81l1.85-12.93c.22-1.46-.45-1.9-1.23-1.9s-1.46.45-1.68,1.9l-4.2,29.34c-.17,1.51.45,1.9,1.29,1.9.78,0,1.46-.39,1.62-1.9l1.9-13.04h11.81l-1.9,13.1c-1.23,8.79-6.83,11.7-14.84,11.7s-12.93-2.91-11.64-11.7Z"/>
      <path class="cls-1" d="m158.85,71.2h18.59l-1.4,9.85h-6.77l-1.51,10.86h6.61l-1.4,9.74h-6.61l-1.57,11.2h6.77l-1.4,9.85h-18.59l7.28-51.51Z"/>
    </g>
    <g>
      <g>
        <line class="cls-2" x1="115.04" y1="28.78" x2="142.24" y2="28.78"/>
        <polyline class="cls-2" points="131.9 17.26 143.43 28.78 131.9 40.31"/>
      </g>
      <circle class="cls-2" cx="129.8" cy="28.78" r="27.78"/>
    </g>
  </g>
</svg>