<?xml version="1.0" encoding="UTF-8"?>
<svg id="Layer_2" data-name="Layer 2" xmlns="http://www.w3.org/2000/svg" viewBox="0 0 119.68 122.03">
  <defs>
    <style>
      .cls-1 {
        fill: #fff;
      }
    </style>
  </defs>
  <g id="Layer_1-2" data-name="Layer 1">
    <g>
      <path class="cls-1" d="m52.87,18.64h-1.16v9.57h9.57v-9.57h-8.41Zm6.09,7.25h-4.93v-4.93h4.93v4.93Z"/>
      <path class="cls-1" d="m112.65,49.42h-10.45V14.83c0-3.01-1.23-5.75-3.21-7.74-1.87-1.87-4.4-3.07-7.2-3.2-1-2.29-3.29-3.89-5.93-3.89h-27.32c-2.65,0-4.94,1.61-5.93,3.9-2.75.17-5.23,1.36-7.07,3.19-1.98,1.98-3.22,4.72-3.22,7.74v51.22c0,3.01,1.23,5.75,3.22,7.74,1.98,1.98,4.72,3.22,7.73,3.22h29.24v2.55c0,3.86,3.16,7.03,7.03,7.03h23.12c3.86,0,7.03-3.16,7.03-7.03v-23.12c0-3.86-3.16-7.03-7.03-7.03Zm-30.14,7.03v2.64h-18.97v2.65h18.97v10.64h-29.24c-1.73,0-3.31-.71-4.46-1.86-1.15-1.14-1.86-2.72-1.86-4.46V14.83c0-1.73.71-3.31,1.86-4.46.96-.95,2.21-1.61,3.61-1.8.88,2.53,3.29,4.37,6.12,4.37h27.32c2.83,0,5.25-1.84,6.12-4.38,1.45.17,2.75.83,3.74,1.81,1.15,1.15,1.86,2.72,1.86,4.46v34.59h-8.03c-3.86,0-7.03,3.16-7.03,7.03Zm32.22,4.24l-15.64,18.17c-.12.14-.29.22-.47.23-.18,0-.36-.06-.49-.18l-10.6-10.04c-.14-.13-.21-.3-.22-.49,0-.19.06-.36.19-.5l3.38-3.57c.14-.14.32-.22.51-.22.17,0,.35.06.48.19l5.79,5.48c.14.13.31.2.5.19.18,0,.35-.09.47-.24l11.32-13.15c.12-.14.29-.23.48-.24.19-.01.37.05.51.17l3.72,3.21c.14.12.23.29.24.48.01.19-.05.37-.17.51Z"/>
      <path class="cls-1" d="m57.82,119.25c0,1.53,1.25,2.79,2.79,2.79h5.97c1.53,0,2.79-1.25,2.79-2.79v-3.52h-11.54v3.52Z"/>
      <path class="cls-1" d="m7.46,119.25c0,1.53,1.25,2.79,2.79,2.79h5.97c1.53,0,2.79-1.25,2.79-2.79v-3.52H7.46v3.52Z"/>
      <path class="cls-1" d="m10.47,85.04c-2.65,4.5-4.83,10.02-5.59,15h3.86l.91-3.87c.23-.96,1.1-1.61,2.08-1.58,5.67.18,10.54,2.32,13.9,5.45h25.93c3.37-3.14,8.25-5.28,13.93-5.45.97-.03,1.85.59,2.11,1.53l1.11,3.92h3.37c-1.04-6.56-3.91-11.82-7.4-17.3H14.9l.17-.71,2.19-8.95c.17-.52.44-.88.81-1.09.48-.27,1.17-.36,2.1-.28h.13s14.06,0,14.06,0h2.68v1.13h-2.17c-.77,0-1.4.63-1.4,1.4v.04c0,.77.63,1.4,1.4,1.4h5.67c-.67-.89-1.25-1.84-1.72-2.84h-.08v-.18c-.61-1.34-1.04-2.75-1.26-4.22h-17.12c-1.54-.12-2.83.12-3.87.7-1.16.65-1.94,1.66-2.36,3.04l-.03.09-2.59,10.57-.88-1.4v-3.1c0-.82-.67-1.49-1.49-1.49H1.49c-.82,0-1.49.67-1.49,1.49v3.48c0,.82.67,1.49,1.49,1.49h6.41l2.57,1.71Z"/>
      <path class="cls-1" d="m52.87,43.38h-1.16v9.57h9.57v-9.57h-8.41Zm6.09,7.25h-4.93v-4.93h4.93v4.93Z"/>
      <path class="cls-1" d="m52.87,55.69h-1.16v9.57h9.57v-9.57h-8.41Zm6.09,7.25h-4.93v-4.93h4.93v4.93Z"/>
      <rect class="cls-1" x="63.53" y="34.03" width="26" height="2.65"/>
      <path class="cls-1" d="m52.87,30.64h-1.16v9.57h9.57v-9.57h-8.41Zm6.09,7.25h-4.93v-4.93h4.93v4.93Z"/>
      <rect class="cls-1" x="63.53" y="46.77" width="26" height="2.65"/>
      <path class="cls-1" d="m72.93,101.87H4.67c-.84.64-1.38,1.68-1.38,2.84v6.2c0,1.62,1.05,2.99,2.48,3.4h66.05c1.43-.42,2.48-1.79,2.48-3.4v-6.2c0-1.16-.54-2.19-1.38-2.84Zm-60.53,8.69c-1.7,0-3.07-1.38-3.07-3.07s1.38-3.07,3.07-3.07,3.07,1.37,3.07,3.07-1.38,3.07-3.07,3.07Zm37.43-1.48c0,.67-.55,1.22-1.22,1.22h-20.06c-.67,0-1.22-.55-1.22-1.22v-2.32c0-.67.55-1.22,1.22-1.22h20.06c.67,0,1.22.55,1.22,1.22v2.32Zm18.79,1.48c-1.69,0-3.07-1.38-3.07-3.07s1.38-3.07,3.07-3.07,3.07,1.37,3.07,3.07-1.37,3.07-3.07,3.07Z"/>
      <rect class="cls-1" x="63.53" y="22.03" width="26" height="2.65"/>
    </g>
  </g>
</svg>