<?xml version="1.0" encoding="UTF-8"?>
<svg id="Layer_2" data-name="Layer 2" xmlns="http://www.w3.org/2000/svg" viewBox="0 0 112.63 112.63">
  <defs>
    <style>
      .cls-1 {
        fill: #fff;
      }
    </style>
  </defs>
  <g id="Layer_1-2" data-name="Layer 1">
    <g>
      <path class="cls-1" d="m56.32,17.72c-10.31,0-20,4.01-27.29,11.31-7.29,7.29-11.31,16.98-11.31,27.29s4.01,20,11.31,27.29c7.29,7.29,16.98,11.31,27.29,11.31s20-4.01,27.29-11.31c7.29-7.29,11.31-16.98,11.31-27.29s-4.01-20-11.31-27.29c-7.29-7.29-16.98-11.31-27.29-11.31Zm25.37,15.9l-3.44.78.78-3.44c.47.42.92.85,1.37,1.3.45.45.88.9,1.3,1.37Zm8.67,22.7c0,.63-.02,1.26-.05,1.88l-2.99-1.88,2.99-1.88c.03.62.05,1.25.05,1.88Zm-68.08,0c0-.63.02-1.26.05-1.88l2.99,1.88-2.99,1.88c-.03-.62-.05-1.25-.05-1.88Zm25.68,0c0-2.23.87-4.33,2.45-5.91,1.58-1.58,3.68-2.45,5.91-2.45s4.33.87,5.91,2.45c1.58,1.58,2.45,3.68,2.45,5.91s-.87,4.33-2.45,5.91c-1.58,1.58-3.68,2.45-5.91,2.45s-4.33-.87-5.91-2.45c-1.58-1.58-2.45-3.68-2.45-5.91Zm25.19-20.1l-6.32,6.32-5.29,1.96c-.19-.08-.38-.16-.57-.23l-2.35-5.13v-8.93l4.56-7.23c4.24.86,8.25,2.53,11.85,4.91l-1.89,8.34Zm-19.14-6.02v8.93l-2.35,5.13c-.19.07-.38.15-.57.23l-5.29-1.96-6.32-6.32-1.89-8.34c3.61-2.38,7.62-4.05,11.85-4.91l4.56,7.23Zm-17.79,9.28l6.32,6.32,1.96,5.29c-.08.19-.16.38-.23.57l-5.13,2.35h-8.93l-7.23-4.56c.86-4.24,2.53-8.25,4.91-11.85l8.34,1.89Zm-6.02,19.14h8.93l5.13,2.35c.07.19.15.38.23.57l-1.96,5.29-6.32,6.32-8.34,1.89c-2.38-3.61-4.05-7.62-4.91-11.85l7.23-4.56Zm9.28,17.79l6.32-6.32,5.29-1.96c.19.08.38.16.57.23l2.35,5.13v8.93l-4.56,7.23c-4.24-.86-8.25-2.53-11.85-4.91l1.89-8.34Zm19.14,6.02v-8.93l2.35-5.13c.19-.07.38-.15.57-.23l5.29,1.96,6.32,6.32,1.89,8.34c-3.61,2.38-7.62,4.05-11.85,4.91l-4.56-7.23Zm17.79-9.28l-6.32-6.32-1.96-5.29c.08-.19.16-.38.23-.57l5.13-2.35h8.93l7.23,4.56c-.86,4.24-2.53,8.25-4.91,11.85l-8.34-1.89Zm6.02-19.14h-8.93l-5.13-2.35c-.07-.19-.15-.38-.23-.57l1.96-5.29,6.32-6.32,8.34-1.89c2.38,3.61,4.05,7.62,4.91,11.85l-7.23,4.56Zm-24.23-31.68l-1.88,2.99-1.88-2.99c.62-.03,1.25-.05,1.88-.05s1.26.02,1.88.05Zm-24.58,8.62l.78,3.44-3.44-.78c.42-.47.85-.92,1.3-1.37s.9-.88,1.37-1.3Zm-2.66,48.07l3.44-.78-.78,3.44c-.47-.42-.92-.85-1.37-1.3-.45-.45-.88-.9-1.3-1.37Zm23.48,11.29l1.88-2.99,1.88,2.99c-.62.03-1.25.05-1.88.05s-1.26-.02-1.88-.05Zm24.58-8.62l-.78-3.44,3.44.78c-.42.47-.85.92-1.3,1.37-.45.45-.9.88-1.37,1.3Z"/>
      <circle class="cls-1" cx="56.32" cy="56.32" r="6.08"/>
      <path class="cls-1" d="m112.63,56.32c0-2.66-.18-5.29-.54-7.89l-2.18-1.53,1.89-.33c-.45-2.61-1.09-5.18-1.91-7.69l-2.43-1.13,1.81-.66c-.28-.78-.58-1.55-.9-2.32-.7-1.68-1.47-3.33-2.33-4.92l-2.59-.69,1.67-.96c-1.32-2.29-2.81-4.49-4.45-6.58l-2.65-.23,1.47-1.23c-1.06-1.26-2.17-2.47-3.34-3.64-.71-.71-1.44-1.4-2.18-2.07l-2.65.23,1.23-1.47c-2.03-1.71-4.17-3.27-6.41-4.67l-2.59.69.96-1.67c-2.13-1.23-4.34-2.33-6.63-3.28-.16-.07-.33-.13-.49-.2l-2.43,1.13.66-1.81c-2.49-.91-5.04-1.64-7.63-2.18l-2.19,1.54.33-1.89c-2.6-.45-5.24-.73-7.91-.81l-1.88,1.88V0s-.02,0-.03,0c-2.66,0-5.29.18-7.89.54l-1.53,2.18-.33-1.89c-2.61.45-5.18,1.09-7.69,1.91l-1.13,2.43-.66-1.81c-.78.28-1.55.58-2.32.9-1.68.7-3.33,1.47-4.92,2.32l-.69,2.59-.96-1.67c-2.29,1.32-4.49,2.81-6.58,4.45l-.23,2.65-1.23-1.47c-1.25,1.06-2.47,2.17-3.64,3.34-.71.71-1.4,1.44-2.07,2.18l.23,2.65-1.47-1.23c-1.71,2.03-3.27,4.17-4.67,6.41l.69,2.59-1.67-.96c-1.23,2.13-2.33,4.34-3.28,6.63-.07.16-.13.33-.2.49l1.13,2.43-1.81-.66c-.91,2.49-1.64,5.04-2.18,7.63l1.54,2.19-1.89-.33c-.45,2.6-.73,5.24-.81,7.91l1.88,1.88H0s0,.02,0,.03c0,2.66.18,5.29.54,7.89l2.18,1.53-1.89.33c.45,2.61,1.09,5.18,1.91,7.69l2.43,1.13-1.81.66c.28.78.58,1.55.9,2.32.7,1.68,1.47,3.33,2.32,4.92l2.59.69-1.67.96c1.32,2.29,2.81,4.49,4.45,6.58l2.65.23-1.47,1.23c1.06,1.25,2.17,2.47,3.34,3.64.71.71,1.44,1.4,2.18,2.07l2.65-.23-1.23,1.47c2.03,1.71,4.17,3.27,6.41,4.67l2.59-.69-.96,1.67c2.13,1.23,4.34,2.33,6.63,3.28.16.07.33.13.49.2l2.43-1.13-.66,1.81c2.49.91,5.04,1.64,7.63,2.18l2.19-1.54-.33,1.89c2.6.45,5.24.73,7.91.81l1.88-1.88v1.91s.02,0,.03,0c2.66,0,5.29-.18,7.89-.54l1.53-2.18.33,1.89c2.61-.45,5.18-1.09,7.69-1.91l1.13-2.43.66,1.81c.78-.28,1.55-.58,2.32-.9,1.68-.7,3.33-1.47,4.92-2.32l.69-2.59.96,1.67c2.29-1.32,4.49-2.81,6.58-4.45l.23-2.65,1.23,1.47c1.25-1.06,2.47-2.17,3.64-3.34.71-.71,1.4-1.44,2.07-2.18l-.23-2.65,1.47,1.23c1.71-2.03,3.27-4.17,4.67-6.41l-.69-2.59,1.67.96c1.23-2.13,2.33-4.34,3.28-6.63.07-.16.13-.33.2-.49l-1.13-2.43,1.81.66c.91-2.49,1.64-5.04,2.18-7.63l-1.54-2.19,1.89.33c.45-2.6.73-5.24.81-7.91l-1.88-1.88h1.91s0-.02,0-.03Zm-26.97,29.34c-7.84,7.84-18.26,12.15-29.34,12.15s-21.51-4.32-29.34-12.15c-7.84-7.84-12.15-18.26-12.15-29.34s4.32-21.51,12.15-29.34c7.84-7.84,18.26-12.15,29.34-12.15s21.51,4.32,29.34,12.15c7.84,7.84,12.15,18.26,12.15,29.34s-4.32,21.51-12.15,29.34Z"/>
    </g>
  </g>
</svg>