<?xml version="1.0" encoding="utf-8"?>
<!-- Generator: Adobe Illustrator 27.5.0, SVG Export Plug-In . SVG Version: 6.00 Build 0)  -->
<svg version="1.1" id="Layer_2_00000090262481310385758770000009062566492227542714_"
	 xmlns="http://www.w3.org/2000/svg" xmlns:xlink="http://www.w3.org/1999/xlink" x="0px" y="0px" viewBox="0 0 106.8 92.9"
	 style="enable-background:new 0 0 106.8 92.9;" xml:space="preserve">
<g id="Layer_1-2">
	<g>
		<path d="M17.5,0H28c1.9,0,3.5,1.6,3.5,3.5v4.3c0,1.9-1.6,3.5-3.5,3.5H17.5c-1.9,0-3.5-1.6-3.5-3.5V3.5C14,1.6,15.5,0,17.5,0z"/>
		<path d="M78.5,0H89c1.9,0,3.5,1.6,3.5,3.5v4.3c0,1.9-1.6,3.5-3.5,3.5H78.5c-1.9,0-3.5-1.6-3.5-3.5V3.5C75,1.6,76.5,0,78.5,0z"/>
		<path d="M97.9,12.2H8.8c-4.9,0-8.8,3.6-8.8,8v64.7c0,4.4,4,8,8.8,8h89.1c4.9,0,8.8-3.6,8.8-8V20.2
			C106.8,15.8,102.8,12.2,97.9,12.2z M31.2,55.4H13.3v-5.7h17.9L31.2,55.4L31.2,55.4z M92.7,55.5h-6.1v5.8h-5.7v-5.8h-6.1v-5.7h6.1
			V44h5.7v5.8h6.1C92.7,49.8,92.7,55.5,92.7,55.5z"/>
	</g>
</g>
</svg>
