<?xml version="1.0" encoding="UTF-8"?>
<svg id="Layer_2" data-name="Layer 2" xmlns="http://www.w3.org/2000/svg" viewBox="0 0 112.63 112.3">
  <defs>
    <style>
      .cls-1 {
        fill: #fff;
      }
    </style>
  </defs>
  <g id="Layer_1-2" data-name="Layer 1">
    <g>
      <path class="cls-1" d="m86.6,58.63c-.37-7.86-3.38-15.27-8.57-21.19-5.19-5.91-12.15-9.85-19.9-11.24-3.15-.56-5.47-3.16-5.7-6.34l-.82-11.55c-12.06.08-24.15,4.34-33.93,12.92C-3.89,40.17-6.02,73.02,12.92,94.6c18.94,21.58,51.79,23.72,73.38,4.77,9.78-8.58,15.56-20.02,17.21-31.97l-11.34-2.31c-3.13-.64-5.4-3.28-5.55-6.47Zm-15.47,23.47c-12.04,10.57-30.37,9.38-40.94-2.66-10.57-12.04-9.38-30.37,2.66-40.94,12.04-10.57,30.37-9.38,40.94,2.66,10.57,12.04,9.38,30.37-2.66,40.94Z"/>
      <path class="cls-1" d="m36.29,42.41c-9.88,8.67-10.86,23.72-2.19,33.6,8.67,9.88,23.72,10.86,33.6,2.19,9.88-8.67,10.86-23.72,2.19-33.6-8.67-9.88-23.72-10.86-33.6-2.19Zm2.89,3.29c1.02-.9,2.58-.8,3.48.23.9,1.02.8,2.58-.23,3.48-1.02.9-2.58.8-3.48-.23-.9-1.02-.8-2.58.23-3.48Zm1.69,27.65c-1.02.9-2.58.8-3.48-.23-.9-1.02-.8-2.58.23-3.48,1.02-.9,2.58-.8,3.48.23.9,1.02.8,2.58-.23,3.48Zm17.92-5.31c-4.27,3.75-10.78,3.33-14.53-.95-3.75-4.27-3.33-10.78.95-14.53,4.27-3.75,10.78-3.33,14.53.95,3.75,4.27,3.33,10.78-.95,14.53Zm6.03,6.86c-1.02.9-2.58.8-3.48-.23-.9-1.02-.8-2.58.23-3.48,1.02-.9,2.58-.8,3.48.23.9,1.02.8,2.58-.23,3.48Zm1.56-23.94c-1.02.9-2.58.8-3.48-.23-.9-1.02-.8-2.58.23-3.48,1.02-.9,2.58-.8,3.48.23.9,1.02.8,2.58-.23,3.48Z"/>
      <path class="cls-1" d="m97.57,20.3C87.52,8.86,73.68,1.66,58.55.02c-.95-.1-1.8.19-2.49.85-.69.66-1.01,1.51-.94,2.46l.36,5.1.79,11.16c.1,1.44,1.13,2.58,2.55,2.84,8.6,1.54,16.34,5.92,22.1,12.49,5.76,6.57,9.1,14.81,9.52,23.54.07,1.44,1.07,2.61,2.48,2.9l10.96,2.23,5.01,1.02c.93.19,1.81-.02,2.56-.62.74-.59,1.15-1.41,1.17-2.36.33-15.22-5.01-29.88-15.05-41.32Zm-26.61-4.14c-1.48,1.3-3.72,1.15-5.02-.33-1.3-1.48-1.15-3.72.33-5.02.16-.14.33-.26.5-.37,1.45-.88,3.36-.62,4.52.69.3.35.53.73.67,1.14.48,1.33.13,2.89-1,3.88Zm22,12.12c-.18.65-.54,1.26-1.09,1.75-1.48,1.3-3.72,1.15-5.02-.33-1.3-1.48-1.15-3.72.33-5.02.55-.48,1.2-.76,1.87-.85,1.14-.15,2.33.25,3.15,1.18.82.93,1.06,2.16.76,3.28Zm10.38,23.83c-.13.16-.27.31-.43.45-1.48,1.3-3.72,1.15-5.02-.33-1.3-1.48-1.15-3.72.33-5.02,1.13-.99,2.71-1.14,3.97-.49.39.2.74.47,1.05.82,1.16,1.32,1.16,3.25.1,4.57Z"/>
    </g>
  </g>
</svg>