<?xml version="1.0" encoding="UTF-8"?>
<svg id="Layer_2" data-name="Layer 2" xmlns="http://www.w3.org/2000/svg" viewBox="0 0 112.63 112.63">
  <defs>
    <style>
      .cls-1 {
        fill: #fff;
      }
    </style>
  </defs>
  <g id="Layer_1-2" data-name="Layer 1">
    <path class="cls-1" d="m56.32,0C25.21,0,0,25.21,0,56.32s25.21,56.32,56.32,56.32,56.32-25.21,56.32-56.32S87.42,0,56.32,0ZM15.74,33.97v-2.17c8.3-13.65,23.29-22.77,40.43-22.77s32.17,9.06,40.34,22.63v3.67l-.41,1.23-.28,1.16c-.12.44-.38.83-.77,1.08l-3.26,2.12c-.14.09-.29.25-.29.42v.03c0,.22-.09.42-.31.45l-.97.18c-.15.03-.26.12-.33.25l-.08.17c-.09.16-.24.24-.42.26l-26.54,2.93h-.08c-1.92-.92-4.13-1.68-6.49-1.68s-4.57.63-6.48,1.71l-26.59-2.95c-.14-.02-.26-.09-.34-.21l-.15-.24c-.08-.13-.22-.22-.38-.25l-1.05-.18c-.22-.04-.38-.23-.38-.45,0-.18-.09-.36-.25-.46l-3.24-2.18c-.31-.21-.54-.52-.64-.88l-.34-1.17c-.03-.09-.06-.17-.09-.26l-.34-.64c-.13-.31-.27-.64-.27-.98v-.84Zm73.91,13.97s-.05.02-.08.03c0,0-11.69,4.11-15.4,4.82-.13.03-.53-.1-.53-.1-.78-.15-1.13-1.08-.62-1.69.14-.17.27-.3.37-.32l15.65-3.85c.14-.02.26-.02.38-.02.61.03.8.9.23,1.14Zm-21.79,8.88c0,.73-.59,1.32-1.32,1.32s-1.32-.59-1.32-1.32.59-1.32,1.32-1.32,1.32.59,1.32,1.32Zm-11.54-8.35c4.47,0,8.09,3.62,8.09,8.09s-3.62,8.09-8.09,8.09-8.09-3.62-8.09-8.09,3.62-8.09,8.09-8.09Zm-6.14-.63c0-.73.59-1.32,1.32-1.32s1.32.59,1.32,1.32-.59,1.32-1.32,1.32-1.32-.59-1.32-1.32Zm10.06.25c0-.73.59-1.32,1.32-1.32s1.32.59,1.32,1.32-.59,1.32-1.32,1.32-1.32-.59-1.32-1.32Zm-12.6,8.32c0,.73-.59,1.32-1.32,1.32s-1.32-.59-1.32-1.32.59-1.32,1.32-1.32,1.32.59,1.32,1.32Zm-8.56-4.11s-.4.13-.53.1c-3.71-.71-15.4-4.82-15.4-4.82-.03,0-.05-.02-.08-.03-.56-.25-.38-1.11.23-1.14.12,0,.24,0,.38.02l15.65,3.85c.1.03.23.15.37.32.5.61.16,1.54-.62,1.69Zm12.93,40.54l-.03.05c-.09.13-.15.27-.18.42l-.99,4.51c-.34,1.02-.94,1.93-1.74,2.65l-.89.79-2.37.26-1.2.61c-20.45-5.21-35.57-23.75-35.57-45.82,0-.29,0-.57.01-.86l1-.46c.33-.15.6-.39.8-.69l.33-.52c.37-.57.85-1.05,1.43-1.4.69-.42,1.48-.65,2.28-.67l5.14-.09c.09,0,.18-.03.25-.09l.19-.15c.14-.11.32-.13.48-.06l19.54,8.69,3.59,2.23.81.5c1.65,1.02,2.79,2.71,3.11,4.62l.02.11,4.18,24.51c.05.3-.02.61-.2.86Zm-.81-26.29c-.73,0-1.32-.59-1.32-1.32s.59-1.32,1.32-1.32,1.32.59,1.32,1.32-.59,1.32-1.32,1.32Zm5.63,24.57s0,.06,0,.08c-.09.61-.98.65-1.16.07-.03-.11-.06-.23-.08-.37l-.28-16.11c0-.1.09-.26.22-.44.46-.64,1.45-.54,1.8.17,0,0,.23.35.24.48.26,3.77-.72,16.12-.72,16.12Zm3.16-25.84c0-.73.59-1.32,1.32-1.32s1.32.59,1.32,1.32-.59,1.32-1.32,1.32-1.32-.59-1.32-1.32Zm8.06,36.84l-1.2-.61-2.37-.26-.89-.79c-.8-.72-1.4-1.63-1.74-2.65h0s-.99-4.51-.99-4.51c-.03-.15-.1-.29-.18-.42l-.03-.05c-.18-.25-.25-.56-.2-.86l4.2-24.62h0c.33-1.92,1.46-3.6,3.11-4.62l.66-.41,3.75-2.32,19.56-8.7c.14-.06.31-.04.44.05l.08.07c.15.12.34.18.53.19l5.4.09c.54,0,1.06.16,1.51.44l.65.4c.38.24.71.55.95.93l.82,1.27,1.48.68c0,.29.01.58.01.87,0,22.06-15.11,40.6-35.55,45.82Z"/>
  </g>
</svg>