<?xml version="1.0" encoding="UTF-8"?>
<svg id="Layer_2" data-name="Layer 2" xmlns="http://www.w3.org/2000/svg" viewBox="0 0 122.51 106.05">
  <defs>
    <style>
      .cls-1 {
        fill: #fff;
        fill-rule: evenodd;
      }
    </style>
  </defs>
  <g id="Layer_1-2" data-name="Layer 1">
    <g>
      <path class="cls-1" d="m41.82.72c-1.52.19-2.32,1.02-2.69,1.46l-6.94,8.3h-8.05c-.91,0-1.87.73-2.11,1.62l-.73,2.66c-.1.35.15.5.49.65l4.59,2.03-1.86,2.23c-1.13,1.4-1.69,3.26-1.65,5.61v14.82h-5.31v4.66h5.31v2.85c0,.91.77,1.66,1.7,1.66h12.48c.94,0,1.7-.75,1.7-1.66v-4.36h45.03v4.36c0,.91.77,1.66,1.7,1.66h12.48c.94,0,1.7-.75,1.7-1.66v-2.85h5.31v-4.66h-5.31v-14.82c.04-2.35-.52-4.21-1.65-5.61l-1.86-2.23,4.59-2.03c.33-.15.58-.29.49-.65l-.73-2.66c-.25-.89-1.2-1.62-2.11-1.62h-8.05l-6.94-8.3c-.37-.44-1.17-1.28-2.69-1.46-15.18-.93-23.69-.97-38.87,0h0Zm-8.12,15.37c-.71.1-.8-.38-.54-.75l8.48-10.27c.37-.45.78-.69,1.38-.76,15.05-.99,21.48-.88,36.47,0,.6.07,1.01.31,1.38.76l8.48,10.27c.27.36.18.85-.54.75-21.23-1.06-33.87-1.17-55.1,0h0Zm-5.3,6.11l11.12,1.34c1.41.17,2.59,1.23,2.59,2.62v2.02c0,.39-.34.71-.74.69l-11.12-.4c-1.62-.06-2.96-1.4-2.96-2.99v-2.23c0-.59.5-1.11,1.11-1.04h0Zm65.7,0c.6-.07,1.11.45,1.11,1.04v2.23c0,1.59-1.33,2.93-2.96,2.99l-11.12.4c-.41.01-.74-.3-.74-.69v-2.02c0-1.39,1.18-2.45,2.59-2.62l11.12-1.34Z"/>
      <path class="cls-1" d="m122.51,100.25h-3.38V25.04c0-2.08-1.23-3.08-3.61-3.04h-9.03v78.26h-8l-5.13,3.44v2.36h29.14v-5.8h0Zm-122.51,0h3.38V25.04c0-2.08,1.23-3.08,3.61-3.04h9.03v78.26h8l5.13,3.44v2.36H0v-5.8Z"/>
    </g>
  </g>
</svg>