<?xml version="1.0" encoding="UTF-8"?>
<svg id="Layer_2" data-name="Layer 2" xmlns="http://www.w3.org/2000/svg" viewBox="0 0 118.92 90.25">
  <defs>
    <style>
      .cls-1 {
        fill: #fff;
        fill-rule: evenodd;
      }
    </style>
  </defs>
  <g id="Layer_1-2" data-name="Layer 1">
    <g>
      <path class="cls-1" d="m48.52,12.38l3.88,1.93-1.89,3.79,7.66,3.82,1.89-3.79,3.68,1.84c2.03,1.01,4.51.18,5.52-1.85h0c1.01-2.03.18-4.51-1.85-5.52l-15.22-7.59c-2.03-1.01-4.51-.18-5.52,1.85h0c-1.01,2.03-.18,4.51,1.85,5.52Z"/>
      <path class="cls-1" d="m111.7,57.74l-4.13-8.29-30.53-4.43-.97-12.44L30.6,9.92l-3.56-1.77L13.58,1.44h-.02C11.25.31,9.17-.11,7.36.03-.43.62-1.12,9.42,1.11,15.29h0l8.93,26.98-2.08,4.17,60.13,29.97,36.26-21.89,7.35,3.22ZM14.47,33.37L7.76,13.09l-.07-.17c-1.1-3.26-1.4-7.29,2.76-5.2h0s13.46,6.72,13.46,6.72l-9.43,18.93Z"/>
      <path class="cls-1" d="m117.69,75.62c-2.15-7.48-6.19-15.55-6.19-15.55,0,0-10.33,16.47-8.49,24.46.86,3.74,4.18,5.88,7.65,5.71,9.57-.47,9.1-7.42,7.03-14.62Zm-4.93,13.33c-1.9.43-3.84.04-5.42-1.12-5.68-4.17-1.09-14.36,1.18-19.31-3.08,15.15-2.1,19.99,6.74,19.38-.74.45-1.54.84-2.5,1.06Z"/>
    </g>
  </g>
</svg>