<?xml version="1.0" encoding="UTF-8"?>
<svg id="Layer_2" data-name="Layer 2" xmlns="http://www.w3.org/2000/svg" viewBox="0 0 103.47 100.72">
  <defs>
    <style>
      .cls-1 {
        fill: #fff;
      }
    </style>
  </defs>
  <g id="Layer_1-2" data-name="Layer 1">
    <g>
      <path class="cls-1" d="m17.35,69.04c4.85,5.01,9.67,10,14.52,15.01-.16.14-.29.26-.42.37-3.34,2.57-6.69,5.14-10.02,7.72-.21.16-.39.44-.47.7-1.33,4.26-4.16,6.9-8.55,7.72-5.78,1.07-11.45-3.07-12.29-8.89-.8-5.56,2.63-10.65,8.08-11.98.32-.08.55-.22.75-.47,2.68-3.27,5.38-6.53,8.07-9.8.09-.11.19-.21.33-.36Zm-10.63,20.97c0,2.19,1.75,3.97,3.92,3.98,2.17,0,3.97-1.77,3.97-3.94,0-2.16-1.75-3.93-3.91-3.95-2.19-.02-3.97,1.73-3.98,3.91Z"/>
      <path class="cls-1" d="m85.92,26.58c-.72.7-1.42,1.37-2.12,2.04-.24.23-.5.45-.71.7-.24.28-.43.28-.73.06-2.1-1.58-4.22-3.14-6.33-4.7-1.25-.93-2.51-1.86-3.76-2.79-.13-.09-.25-.2-.43-.35,1.6-1.55,3.17-3.08,4.78-4.63-1.52-1.58-3.02-3.13-4.54-4.7.39-.4.75-.77,1.13-1.13,1.66-1.61,3.32-3.2,4.97-4.82.28-.28.45-.28.73.01,4.19,4.35,8.4,8.7,12.6,13.04,1.71,1.76,3.42,3.53,5.12,5.29.37.39.37.39,0,.75-1.94,1.87-3.88,3.74-5.81,5.62-.26.25-.4.23-.64-.02-1.3-1.37-2.63-2.73-3.94-4.09-.09-.09-.19-.17-.31-.28Z"/>
      <path class="cls-1" d="m27.56,64.36c.96-.93,1.85-1.76,2.7-2.62.26-.26.43-.28.73-.05,3.26,2.43,6.54,4.85,9.81,7.27.22.16.44.33.72.55-1.55,1.5-3.05,2.96-4.59,4.45.57.6,1.12,1.17,1.68,1.75.86.89,1.72,1.79,2.59,2.67.21.21.26.34.01.58-1.95,1.88-3.89,3.77-5.84,5.65-.37.36-.38.35-.75-.03-5.28-5.46-10.56-10.92-15.84-16.37-.65-.67-1.29-1.35-1.95-2.01-.21-.21-.24-.36,0-.59,1.99-1.91,3.98-3.83,5.96-5.76.22-.21.35-.15.52.04,1.28,1.34,2.58,2.67,3.86,4.01.13.13.23.29.38.48Z"/>
      <path class="cls-1" d="m94.83,20.48c-.72-.67-1.35-1.22-1.94-1.82-3.2-3.29-6.39-6.59-9.58-9.89q-.35-.36.05-.69c2.72-2.3,5.44-4.6,8.16-6.9,1.95-1.65,4.27-1.55,6.05.27,1.59,1.63,3.18,3.28,4.76,4.92,1.48,1.54,1.53,3.98.1,5.57-2.48,2.76-4.97,5.51-7.46,8.26-.09.1-.13.24-.15.29Zm3.4-11.4c0-2.14-1.75-3.87-3.88-3.86-2.13.01-3.86,1.75-3.85,3.88,0,2.16,1.74,3.86,3.92,3.85,2.11,0,3.82-1.75,3.81-3.87Z"/>
      <path class="cls-1" d="m51.66,70.18c-.05,1.05-.51,1.85-1.45,2.33-.98.49-1.95.41-2.83-.24-2.84-2.09-5.67-4.19-8.5-6.28-3.86-2.86-7.72-5.72-11.58-8.58-.84-.62-1.26-1.46-1.11-2.5.28-2.01,2.57-2.96,4.23-1.75,1.61,1.17,3.2,2.36,4.8,3.54,5.09,3.77,10.19,7.54,15.28,11.31.74.54,1.13,1.26,1.16,2.18Z"/>
      <path class="cls-1" d="m35.04,46.62c.05-1,.49-1.79,1.39-2.26.94-.5,1.89-.46,2.77.14.86.59,1.68,1.23,2.52,1.85,5.88,4.35,11.75,8.7,17.63,13.05.99.74,1.39,1.76,1.1,2.87-.27,1.05-1.16,1.81-2.34,1.94-.72.08-1.36-.16-1.94-.6-2.98-2.21-5.96-4.42-8.94-6.62-3.62-2.68-7.24-5.37-10.88-8.04-.79-.58-1.28-1.31-1.3-2.32Z"/>
      <path class="cls-1" d="m66.74,55.63c-.72.03-1.29-.3-1.84-.7-3.33-2.47-6.67-4.94-10-7.41-3.27-2.42-6.54-4.84-9.81-7.27-1.14-.85-1.49-2.2-.89-3.36.76-1.48,2.63-1.9,4.01-.89,2.01,1.48,4.01,2.97,6.02,4.45,4.7,3.48,9.4,6.95,14.09,10.43.89.66,1.27,1.58,1.03,2.67-.23,1.04-.9,1.7-1.93,1.98-.22.06-.45.06-.67.09Z"/>
      <path class="cls-1" d="m55.45,26.85c.66-.01,1.22.24,1.74.62,3.63,2.69,7.27,5.38,10.9,8.07,3.03,2.25,6.07,4.49,9.1,6.74,1.45,1.08,1.48,3.1.08,4.19-.94.74-2.26.74-3.28,0-2.18-1.61-4.35-3.22-6.53-4.83-4.47-3.31-8.94-6.62-13.42-9.93-.93-.69-1.4-1.58-1.19-2.73.2-1.07.88-1.74,1.92-2.04.21-.06.45-.07.67-.1Z"/>
      <path class="cls-1" d="m87.16,35.83c0,1.03-.46,1.8-1.35,2.29-.93.51-1.89.48-2.77-.12-1.09-.75-2.13-1.56-3.19-2.34-5.65-4.18-11.3-8.37-16.95-12.55-1.52-1.12-1.62-3.11-.22-4.25.95-.78,2.28-.79,3.34-.01.92.67,1.82,1.35,2.73,2.02,5.75,4.26,11.49,8.51,17.24,12.76.74.55,1.19,1.25,1.17,2.2Z"/>
      <path class="cls-1" d="m45.3,47.41c.71-.76,1.38-1.48,2.06-2.2.21-.22.46-.41.65-.65.26-.32.46-.27.76-.04,2.13,1.6,4.28,3.19,6.42,4.77,1.23.91,2.47,1.82,3.7,2.74.11.08.22.18.29.24-.7.73-1.37,1.43-2.04,2.13-.22.23-.48.43-.69.67-.24.28-.43.32-.76.07-2.76-2.07-5.55-4.12-8.32-6.18-.6-.44-1.2-.89-1.8-1.33-.11-.09-.22-.18-.27-.22Z"/>
      <path class="cls-1" d="m50.36,60.91c-.08.11-.14.19-.21.26-.89.86-1.79,1.71-2.68,2.58-.21.2-.35.19-.57.02-3.41-2.54-6.83-5.07-10.26-7.6-.23-.17-.35-.29-.08-.55.89-.84,1.78-1.69,2.65-2.55.22-.22.37-.2.61-.02,3.42,2.54,6.84,5.07,10.26,7.6.09.07.18.15.28.25Z"/>
      <path class="cls-1" d="m63.03,30.2c.56-.59,1.1-1.17,1.64-1.73.38-.39.8-.75,1.17-1.15.24-.26.41-.18.64,0,3.13,2.32,6.26,4.64,9.39,6.96.37.28.74.55,1.15.85-.1.12-.17.22-.26.3-.88.86-1.77,1.7-2.64,2.57-.2.2-.35.2-.58.03-3.43-2.55-6.86-5.08-10.29-7.63-.09-.07-.17-.15-.22-.2Z"/>
      <path class="cls-1" d="m54.16,38.8c.7-.74,1.35-1.44,2.02-2.13.24-.25.52-.46.75-.72.24-.28.43-.23.7-.03,2.14,1.6,4.28,3.18,6.43,4.77,1.24.92,2.49,1.84,3.73,2.76.11.08.2.16.35.28-.1.12-.17.22-.26.31-.86.84-1.73,1.66-2.58,2.51-.22.22-.38.25-.64.06-3.4-2.53-6.81-5.05-10.22-7.57-.1-.08-.2-.17-.26-.22Z"/>
    </g>
  </g>
</svg>