<?xml version="1.0" encoding="utf-8"?>
<!-- Generator: Adobe Illustrator 27.5.0, SVG Export Plug-In . SVG Version: 6.00 Build 0)  -->
<svg version="1.1" id="Layer_2_00000018926645735736726950000006122360191274693025_"
	 xmlns="http://www.w3.org/2000/svg" xmlns:xlink="http://www.w3.org/1999/xlink" x="0px" y="0px" viewBox="0 0 118.9 90.2"
	 style="enable-background:new 0 0 118.9 90.2;" xml:space="preserve">
<style type="text/css">
	.st0{fill-rule:evenodd;clip-rule:evenodd;}
</style>
<g id="Layer_1-2">
	<g>
		<path class="st0" d="M48.5,12.4l3.9,1.9l-1.9,3.8l7.7,3.8l1.9-3.8l3.7,1.8c2,1,4.5,0.2,5.5-1.9l0,0c1-2,0.2-4.5-1.8-5.5L52.2,5
			c-2-1-4.5-0.2-5.5,1.8l0,0C45.7,8.9,46.5,11.4,48.5,12.4z"/>
		<path class="st0" d="M111.7,57.7l-4.1-8.3L77,45l-1-12.4L30.6,9.9L27,8.1L13.6,1.4h0C11.2,0.3,9.2-0.1,7.4,0
			c-7.8,0.6-8.5,9.4-6.2,15.3l0,0l8.9,27L8,46.4l60.1,30l36.3-21.9C104.4,54.5,111.7,57.7,111.7,57.7z M14.5,33.4L7.8,13.1l-0.1-0.2
			c-1.1-3.3-1.4-7.3,2.8-5.2l0,0l13.5,6.7L14.5,33.4L14.5,33.4z"/>
		<path class="st0" d="M117.7,75.6c-2.2-7.5-6.2-15.5-6.2-15.5s-10.3,16.5-8.5,24.5c0.9,3.7,4.2,5.9,7.7,5.7
			C120.2,89.8,119.8,82.8,117.7,75.6z M112.8,89c-1.9,0.4-3.8,0-5.4-1.1c-5.7-4.2-1.1-14.4,1.2-19.3c-3.1,15.2-2.1,20,6.7,19.4
			C114.5,88.3,113.7,88.7,112.8,89L112.8,89z"/>
	</g>
</g>
</svg>
