<?xml version="1.0" encoding="UTF-8"?>
<svg id="Layer_2" data-name="Layer 2" xmlns="http://www.w3.org/2000/svg" viewBox="0 0 106.76 92.94">
  <defs>
    <style>
      .cls-1 {
        fill: #fff;
      }
    </style>
  </defs>
  <g id="Layer_1-2" data-name="Layer 1">
    <g>
      <path class="cls-1" d="m17.47,0h10.5c1.93,0,3.5,1.57,3.5,3.5v4.33c0,1.93-1.57,3.5-3.5,3.5h-10.5c-1.93,0-3.5-1.57-3.5-3.5V3.5c0-1.93,1.57-3.5,3.5-3.5Z"/>
      <path class="cls-1" d="m78.47,0h10.5c1.93,0,3.5,1.57,3.5,3.5v4.33c0,1.93-1.57,3.5-3.5,3.5h-10.5c-1.93,0-3.5-1.57-3.5-3.5V3.5c0-1.93,1.57-3.5,3.5-3.5Z"/>
      <path class="cls-1" d="m97.92,12.24H8.83C3.97,12.24,0,15.84,0,20.24v64.69c0,4.4,3.97,8,8.83,8h89.09c4.86,0,8.84-3.6,8.84-8V20.24c0-4.4-3.98-8-8.84-8ZM31.24,55.43H13.32v-5.67h17.91v5.67Zm61.44.05h-6.08v5.76h-5.71v-5.76h-6.12v-5.67h6.12v-5.85h5.71v5.85h6.08v5.67Z"/>
    </g>
  </g>
</svg>