<?xml version="1.0" encoding="utf-8"?>
<!-- Generator: Adobe Illustrator 27.5.0, SVG Export Plug-In . SVG Version: 6.00 Build 0)  -->
<svg version="1.1" id="Layer_2_00000024715819434410901830000005450782718894793627_"
	 xmlns="http://www.w3.org/2000/svg" xmlns:xlink="http://www.w3.org/1999/xlink" x="0px" y="0px" viewBox="0 0 112.6 112.6"
	 style="enable-background:new 0 0 112.6 112.6;" xml:space="preserve">
<g id="Layer_1-2">
	<g>
		<path d="M56.3,17.7c-10.3,0-20,4-27.3,11.3c-7.3,7.3-11.3,17-11.3,27.3s4,20,11.3,27.3c7.3,7.3,17,11.3,27.3,11.3s20-4,27.3-11.3
			c7.3-7.3,11.3-17,11.3-27.3s-4-20-11.3-27.3C76.3,21.7,66.6,17.7,56.3,17.7z M81.7,33.6l-3.4,0.8L79,31c0.5,0.4,0.9,0.9,1.4,1.3
			C80.8,32.7,81.3,33.2,81.7,33.6L81.7,33.6z M90.4,56.3c0,0.6,0,1.3-0.1,1.9l-3-1.9l3-1.9C90.3,55.1,90.4,55.7,90.4,56.3z
			 M22.3,56.3c0-0.6,0-1.3,0-1.9l3,1.9l-3,1.9C22.3,57.6,22.3,57,22.3,56.3z M48,56.3c0-2.2,0.9-4.3,2.5-5.9
			c1.6-1.6,3.7-2.5,5.9-2.5s4.3,0.9,5.9,2.5c1.6,1.6,2.5,3.7,2.5,5.9s-0.9,4.3-2.5,5.9c-1.6,1.6-3.7,2.5-5.9,2.5s-4.3-0.9-5.9-2.5
			C48.8,60.6,48,58.5,48,56.3z M73.2,36.2l-6.3,6.3l-5.3,2c-0.2-0.1-0.4-0.2-0.6-0.2l-2.3-5.1v-8.9l4.6-7.2
			c4.2,0.9,8.3,2.5,11.9,4.9L73.2,36.2L73.2,36.2z M54,30.2v8.9l-2.3,5.1c-0.2,0.1-0.4,0.2-0.6,0.2l-5.3-2l-6.3-6.3l-1.9-8.3
			c3.6-2.4,7.6-4,11.8-4.9L54,30.2L54,30.2z M36.2,39.5l6.3,6.3l2,5.3c-0.1,0.2-0.2,0.4-0.2,0.6L39.1,54h-8.9L23,49.4
			c0.9-4.2,2.5-8.2,4.9-11.8L36.2,39.5L36.2,39.5z M30.2,58.6h8.9l5.1,2.3c0.1,0.2,0.2,0.4,0.2,0.6l-2,5.3l-6.3,6.3L27.9,75
			c-2.4-3.6-4-7.6-4.9-11.8L30.2,58.6L30.2,58.6z M39.5,76.4l6.3-6.3l5.3-2c0.2,0.1,0.4,0.2,0.6,0.2l2.3,5.1v8.9l-4.6,7.2
			c-4.2-0.9-8.2-2.5-11.8-4.9L39.5,76.4L39.5,76.4z M58.6,82.4v-8.9l2.3-5.1c0.2-0.1,0.4-0.2,0.6-0.2l5.3,2l6.3,6.3l1.9,8.3
			c-3.6,2.4-7.6,4.1-11.8,4.9L58.6,82.4L58.6,82.4z M76.4,73.2l-6.3-6.3l-2-5.3c0.1-0.2,0.2-0.4,0.2-0.6l5.1-2.3h8.9l7.2,4.6
			c-0.9,4.2-2.5,8.3-4.9,11.9L76.4,73.2L76.4,73.2z M82.4,54h-8.9l-5.1-2.3c-0.1-0.2-0.2-0.4-0.2-0.6l2-5.3l6.3-6.3l8.3-1.9
			c2.4,3.6,4.1,7.6,4.9,11.8L82.4,54L82.4,54z M58.2,22.3l-1.9,3l-1.9-3c0.6,0,1.2,0,1.9,0S57.6,22.3,58.2,22.3z M33.6,31l0.8,3.4
			L31,33.6c0.4-0.5,0.9-0.9,1.3-1.4S33.2,31.4,33.6,31L33.6,31z M31,79l3.4-0.8l-0.8,3.4c-0.5-0.4-0.9-0.8-1.4-1.3
			C31.8,79.9,31.4,79.5,31,79L31,79z M54.4,90.3l1.9-3l1.9,3c-0.6,0-1.2,0.1-1.9,0.1S55.1,90.3,54.4,90.3z M79,81.7l-0.8-3.4
			l3.4,0.8c-0.4,0.5-0.8,0.9-1.3,1.4C79.9,80.8,79.5,81.3,79,81.7L79,81.7z"/>
		<circle cx="56.3" cy="56.3" r="6.1"/>
		<path d="M112.6,56.3c0-2.7-0.2-5.3-0.5-7.9l-2.2-1.5l1.9-0.3c-0.4-2.6-1.1-5.2-1.9-7.7l-2.4-1.1l1.8-0.7c-0.3-0.8-0.6-1.5-0.9-2.3
			c-0.7-1.7-1.5-3.3-2.3-4.9l-2.6-0.7l1.7-1c-1.3-2.3-2.8-4.5-4.4-6.6L98,21.4l1.5-1.2c-1.1-1.3-2.2-2.5-3.3-3.6
			c-0.7-0.7-1.4-1.4-2.2-2.1l-2.7,0.2l1.2-1.5c-2-1.7-4.2-3.3-6.4-4.7l-2.6,0.7l1-1.7c-2.1-1.2-4.3-2.3-6.6-3.3
			c-0.2-0.1-0.3-0.1-0.5-0.2L75,5.2l0.7-1.8c-2.5-0.9-5-1.6-7.6-2.2l-2.2,1.5l0.3-1.9c-2.6-0.4-5.2-0.7-7.9-0.8l-1.9,1.9V0
			c0,0,0,0,0,0c-2.7,0-5.3,0.2-7.9,0.5l-1.5,2.2l-0.3-1.9c-2.6,0.4-5.2,1.1-7.7,1.9l-1.1,2.4l-0.7-1.8c-0.8,0.3-1.5,0.6-2.3,0.9
			c-1.7,0.7-3.3,1.5-4.9,2.3l-0.7,2.6l-1-1.7c-2.3,1.3-4.5,2.8-6.6,4.4l-0.2,2.7l-1.2-1.5c-1.2,1.1-2.5,2.2-3.6,3.3
			c-0.7,0.7-1.4,1.4-2.1,2.2l0.2,2.6l-1.5-1.2c-1.7,2-3.3,4.2-4.7,6.4l0.7,2.6l-1.7-1c-1.2,2.1-2.3,4.3-3.3,6.6
			c-0.1,0.2-0.1,0.3-0.2,0.5l1.1,2.4L3.4,37c-0.9,2.5-1.6,5-2.2,7.6l1.5,2.2l-1.9-0.3c-0.4,2.6-0.7,5.2-0.8,7.9l1.9,1.9H0
			c0,0,0,0,0,0c0,2.7,0.2,5.3,0.5,7.9l2.2,1.5l-1.9,0.3c0.4,2.6,1.1,5.2,1.9,7.7l2.4,1.1l-1.8,0.7c0.3,0.8,0.6,1.6,0.9,2.3
			c0.7,1.7,1.5,3.3,2.3,4.9l2.6,0.7l-1.7,1c1.3,2.3,2.8,4.5,4.4,6.6l2.7,0.2l-1.5,1.2c1.1,1.2,2.2,2.5,3.3,3.6
			c0.7,0.7,1.4,1.4,2.2,2.1l2.6-0.2l-1.2,1.5c2,1.7,4.2,3.3,6.4,4.7l2.6-0.7l-1,1.7c2.1,1.2,4.3,2.3,6.6,3.3
			c0.2,0.1,0.3,0.1,0.5,0.2l2.4-1.1l-0.7,1.8c2.5,0.9,5,1.6,7.6,2.2l2.2-1.5l-0.3,1.9c2.6,0.4,5.2,0.7,7.9,0.8l1.9-1.9v1.9
			c0,0,0,0,0,0c2.7,0,5.3-0.2,7.9-0.5l1.5-2.2l0.3,1.9c2.6-0.4,5.2-1.1,7.7-1.9l1.1-2.4l0.7,1.8c0.8-0.3,1.6-0.6,2.3-0.9
			c1.7-0.7,3.3-1.5,4.9-2.3l0.7-2.6l1,1.7c2.3-1.3,4.5-2.8,6.6-4.4l0.2-2.7l1.2,1.5c1.2-1.1,2.5-2.2,3.6-3.3
			c0.7-0.7,1.4-1.4,2.1-2.2L98,91.3l1.5,1.2c1.7-2,3.3-4.2,4.7-6.4l-0.7-2.6l1.7,1c1.2-2.1,2.3-4.3,3.3-6.6c0.1-0.2,0.1-0.3,0.2-0.5
			l-1.1-2.4l1.8,0.7c0.9-2.5,1.6-5,2.2-7.6l-1.5-2.2l1.9,0.3c0.4-2.6,0.7-5.2,0.8-7.9l-1.9-1.9L112.6,56.3
			C112.6,56.3,112.6,56.3,112.6,56.3L112.6,56.3z M85.7,85.7c-7.8,7.8-18.3,12.2-29.3,12.2S34.8,93.5,27,85.7
			c-7.8-7.8-12.1-18.3-12.1-29.3S19.1,34.8,27,27c7.8-7.8,18.3-12.1,29.3-12.1S77.8,19.2,85.7,27c7.8,7.8,12.2,18.3,12.2,29.3
			S93.5,77.8,85.7,85.7z"/>
	</g>
</g>
</svg>
