<?xml version="1.0" encoding="utf-8"?>
<!-- Generator: Adobe Illustrator 27.5.0, SVG Export Plug-In . SVG Version: 6.00 Build 0)  -->
<svg version="1.1" id="Layer_2_00000172403069657563679850000001761245398404505263_"
	 xmlns="http://www.w3.org/2000/svg" xmlns:xlink="http://www.w3.org/1999/xlink" x="0px" y="0px" viewBox="0 0 112.6 112.3"
	 style="enable-background:new 0 0 112.6 112.3;" xml:space="preserve">
<g id="Layer_1-2">
	<g>
		<path d="M86.6,58.6c-0.4-7.9-3.4-15.3-8.6-21.2c-5.2-5.9-12.2-9.9-19.9-11.2c-3.2-0.6-5.5-3.2-5.7-6.3L51.6,8.3
			c-12.1,0.1-24.1,4.3-33.9,12.9C-3.9,40.2-6,73,12.9,94.6s51.8,23.7,73.4,4.8c9.8-8.6,15.6-20,17.2-32l-11.3-2.3
			C89,64.4,86.8,61.8,86.6,58.6L86.6,58.6z M71.1,82.1c-12,10.6-30.4,9.4-40.9-2.7s-9.4-30.4,2.7-40.9s30.4-9.4,40.9,2.7
			S83.2,71.5,71.1,82.1z"/>
		<path d="M36.3,42.4c-9.9,8.7-10.9,23.7-2.2,33.6s23.7,10.9,33.6,2.2s10.9-23.7,2.2-33.6S46.2,33.7,36.3,42.4z M39.2,45.7
			c1-0.9,2.6-0.8,3.5,0.2c0.9,1,0.8,2.6-0.2,3.5c-1,0.9-2.6,0.8-3.5-0.2C38,48.2,38.2,46.6,39.2,45.7z M40.9,73.3
			c-1,0.9-2.6,0.8-3.5-0.2c-0.9-1-0.8-2.6,0.2-3.5c1-0.9,2.6-0.8,3.5,0.2C42,70.9,41.9,72.4,40.9,73.3z M58.8,68
			c-4.3,3.8-10.8,3.3-14.5-0.9c-3.8-4.3-3.3-10.8,1-14.5c4.3-3.8,10.8-3.3,14.5,1C63.5,57.8,63.1,64.3,58.8,68z M64.8,74.9
			c-1,0.9-2.6,0.8-3.5-0.2c-0.9-1-0.8-2.6,0.2-3.5c1-0.9,2.6-0.8,3.5,0.2C66,72.4,65.9,74,64.8,74.9z M66.4,51
			c-1,0.9-2.6,0.8-3.5-0.2c-0.9-1-0.8-2.6,0.2-3.5c1-0.9,2.6-0.8,3.5,0.2C67.5,48.5,67.4,50.1,66.4,51z"/>
		<path d="M97.6,20.3C87.5,8.9,73.7,1.7,58.5,0c-1-0.1-1.8,0.2-2.5,0.9c-0.7,0.7-1,1.5-0.9,2.5l0.4,5.1l0.8,11.2
			c0.1,1.4,1.1,2.6,2.5,2.8c8.6,1.5,16.3,5.9,22.1,12.5c5.8,6.6,9.1,14.8,9.5,23.5c0.1,1.4,1.1,2.6,2.5,2.9l11,2.2l5,1
			c0.9,0.2,1.8,0,2.6-0.6c0.7-0.6,1.2-1.4,1.2-2.4C113,46.4,107.6,31.8,97.6,20.3L97.6,20.3z M71,16.2c-1.5,1.3-3.7,1.1-5-0.3
			c-1.3-1.5-1.2-3.7,0.3-5c0.2-0.1,0.3-0.3,0.5-0.4c1.4-0.9,3.4-0.6,4.5,0.7c0.3,0.4,0.5,0.7,0.7,1.1C72.4,13.6,72.1,15.2,71,16.2
			L71,16.2z M93,28.3c-0.2,0.6-0.5,1.3-1.1,1.8c-1.5,1.3-3.7,1.1-5-0.3c-1.3-1.5-1.2-3.7,0.3-5c0.6-0.5,1.2-0.8,1.9-0.9
			c1.1-0.1,2.3,0.2,3.2,1.2S93.3,27.2,93,28.3L93,28.3z M103.3,52.1c-0.1,0.2-0.3,0.3-0.4,0.5c-1.5,1.3-3.7,1.2-5-0.3
			c-1.3-1.5-1.2-3.7,0.3-5c1.1-1,2.7-1.1,4-0.5c0.4,0.2,0.7,0.5,1.1,0.8C104.4,48.9,104.4,50.8,103.3,52.1z"/>
	</g>
</g>
</svg>
