<?xml version="1.0" encoding="utf-8"?>
<!-- Generator: Adobe Illustrator 27.5.0, SVG Export Plug-In . SVG Version: 6.00 Build 0)  -->
<svg version="1.1" id="Layer_2_00000129916217464586089030000011722142379482332064_"
	 xmlns="http://www.w3.org/2000/svg" xmlns:xlink="http://www.w3.org/1999/xlink" x="0px" y="0px" viewBox="0 0 103.5 100.7"
	 style="enable-background:new 0 0 103.5 100.7;" xml:space="preserve">
<g id="Layer_1-2">
	<g>
		<path d="M17.4,69c4.9,5,9.7,10,14.5,15c-0.2,0.1-0.3,0.3-0.4,0.4c-3.3,2.6-6.7,5.1-10,7.7c-0.2,0.2-0.4,0.4-0.5,0.7
			c-1.3,4.3-4.2,6.9-8.6,7.7C6.6,101.6,1,97.5,0.1,91.7c-0.8-5.6,2.6-10.7,8.1-12c0.3-0.1,0.6-0.2,0.8-0.5c2.7-3.3,5.4-6.5,8.1-9.8
			C17.1,69.3,17.2,69.2,17.4,69L17.4,69z M6.7,90c0,2.2,1.8,4,3.9,4c2.2,0,4-1.8,4-3.9c0-2.2-1.8-3.9-3.9-3.9
			C8.5,86.1,6.7,87.8,6.7,90z"/>
		<path d="M85.9,26.6c-0.7,0.7-1.4,1.4-2.1,2c-0.2,0.2-0.5,0.5-0.7,0.7c-0.2,0.3-0.4,0.3-0.7,0.1c-2.1-1.6-4.2-3.1-6.3-4.7
			c-1.2-0.9-2.5-1.9-3.8-2.8c-0.1-0.1-0.2-0.2-0.4-0.4c1.6-1.5,3.2-3.1,4.8-4.6c-1.5-1.6-3-3.1-4.5-4.7c0.4-0.4,0.8-0.8,1.1-1.1
			c1.7-1.6,3.3-3.2,5-4.8c0.3-0.3,0.4-0.3,0.7,0c4.2,4.3,8.4,8.7,12.6,13c1.7,1.8,3.4,3.5,5.1,5.3c0.4,0.4,0.4,0.4,0,0.8
			c-1.9,1.9-3.9,3.7-5.8,5.6c-0.3,0.2-0.4,0.2-0.6,0c-1.3-1.4-2.6-2.7-3.9-4.1C86.1,26.8,86,26.7,85.9,26.6L85.9,26.6z"/>
		<path d="M27.6,64.4c1-0.9,1.9-1.8,2.7-2.6c0.3-0.3,0.4-0.3,0.7,0c3.3,2.4,6.5,4.8,9.8,7.3c0.2,0.2,0.4,0.3,0.7,0.6
			c-1.5,1.5-3,3-4.6,4.4c0.6,0.6,1.1,1.2,1.7,1.8c0.9,0.9,1.7,1.8,2.6,2.7c0.2,0.2,0.3,0.3,0,0.6c-2,1.9-3.9,3.8-5.8,5.7
			C35,85,35,85,34.6,84.6c-5.3-5.5-10.6-10.9-15.8-16.4c-0.6-0.7-1.3-1.3-2-2c-0.2-0.2-0.2-0.4,0-0.6c2-1.9,4-3.8,6-5.8
			c0.2-0.2,0.4-0.2,0.5,0c1.3,1.3,2.6,2.7,3.9,4C27.3,64,27.4,64.2,27.6,64.4L27.6,64.4z"/>
		<path d="M94.8,20.5c-0.7-0.7-1.3-1.2-1.9-1.8c-3.2-3.3-6.4-6.6-9.6-9.9c-0.2-0.2-0.2-0.5,0.1-0.7c2.7-2.3,5.4-4.6,8.2-6.9
			c1.9-1.6,4.3-1.5,6.1,0.3c1.6,1.6,3.2,3.3,4.8,4.9c1.5,1.5,1.5,4,0.1,5.6c-2.5,2.8-5,5.5-7.5,8.3C94.9,20.3,94.8,20.4,94.8,20.5
			L94.8,20.5z M98.2,9.1c0-2.1-1.8-3.9-3.9-3.9S90.5,7,90.5,9.1c0,2.2,1.7,3.9,3.9,3.9C96.5,13,98.2,11.2,98.2,9.1z"/>
		<path d="M51.7,70.2c0,1.1-0.5,1.8-1.5,2.3c-1,0.5-2,0.4-2.8-0.2c-2.8-2.1-5.7-4.2-8.5-6.3c-3.9-2.9-7.7-5.7-11.6-8.6
			c-0.8-0.6-1.3-1.5-1.1-2.5c0.3-2,2.6-3,4.2-1.8c1.6,1.2,3.2,2.4,4.8,3.5c5.1,3.8,10.2,7.5,15.3,11.3
			C51.2,68.6,51.6,69.3,51.7,70.2L51.7,70.2z"/>
		<path d="M35,46.6c0-1,0.5-1.8,1.4-2.3c0.9-0.5,1.9-0.5,2.8,0.1c0.9,0.6,1.7,1.2,2.5,1.8c5.9,4.3,11.8,8.7,17.6,13
			c1,0.7,1.4,1.8,1.1,2.9c-0.3,1-1.2,1.8-2.3,1.9c-0.7,0.1-1.4-0.2-1.9-0.6c-3-2.2-6-4.4-8.9-6.6c-3.6-2.7-7.2-5.4-10.9-8
			C35.6,48.4,35.1,47.6,35,46.6L35,46.6z"/>
		<path d="M66.7,55.6c-0.7,0-1.3-0.3-1.8-0.7c-3.3-2.5-6.7-4.9-10-7.4c-3.3-2.4-6.5-4.8-9.8-7.3c-1.1-0.8-1.5-2.2-0.9-3.4
			c0.8-1.5,2.6-1.9,4-0.9c2,1.5,4,3,6,4.5c4.7,3.5,9.4,7,14.1,10.4c0.9,0.7,1.3,1.6,1,2.7c-0.2,1-0.9,1.7-1.9,2
			C67.2,55.6,67,55.6,66.7,55.6L66.7,55.6z"/>
		<path d="M55.5,26.9c0.7,0,1.2,0.2,1.7,0.6c3.6,2.7,7.3,5.4,10.9,8.1c3,2.2,6.1,4.5,9.1,6.7c1.4,1.1,1.5,3.1,0.1,4.2
			c-0.9,0.7-2.3,0.7-3.3,0c-2.2-1.6-4.3-3.2-6.5-4.8C63,38.3,58.5,35,54,31.7c-0.9-0.7-1.4-1.6-1.2-2.7c0.2-1.1,0.9-1.7,1.9-2
			C55,26.9,55.2,26.9,55.5,26.9L55.5,26.9z"/>
		<path d="M87.2,35.8c0,1-0.5,1.8-1.3,2.3c-0.9,0.5-1.9,0.5-2.8-0.1c-1.1-0.8-2.1-1.6-3.2-2.3c-5.7-4.2-11.3-8.4-17-12.5
			c-1.5-1.1-1.6-3.1-0.2-4.2c1-0.8,2.3-0.8,3.3,0c0.9,0.7,1.8,1.4,2.7,2c5.8,4.3,11.5,8.5,17.2,12.8C86.7,34.2,87.2,34.9,87.2,35.8z
			"/>
		<path d="M45.3,47.4c0.7-0.8,1.4-1.5,2.1-2.2c0.2-0.2,0.5-0.4,0.7-0.7c0.3-0.3,0.5-0.3,0.8,0c2.1,1.6,4.3,3.2,6.4,4.8
			c1.2,0.9,2.5,1.8,3.7,2.7c0.1,0.1,0.2,0.2,0.3,0.2c-0.7,0.7-1.4,1.4-2,2.1c-0.2,0.2-0.5,0.4-0.7,0.7c-0.2,0.3-0.4,0.3-0.8,0.1
			c-2.8-2.1-5.5-4.1-8.3-6.2c-0.6-0.4-1.2-0.9-1.8-1.3C45.5,47.5,45.4,47.4,45.3,47.4z"/>
		<path d="M50.4,60.9c-0.1,0.1-0.1,0.2-0.2,0.3c-0.9,0.9-1.8,1.7-2.7,2.6c-0.2,0.2-0.3,0.2-0.6,0c-3.4-2.5-6.8-5.1-10.3-7.6
			c-0.2-0.2-0.3-0.3-0.1-0.5c0.9-0.8,1.8-1.7,2.7-2.5c0.2-0.2,0.4-0.2,0.6,0c3.4,2.5,6.8,5.1,10.3,7.6
			C50.2,60.7,50.3,60.8,50.4,60.9L50.4,60.9z"/>
		<path d="M63,30.2c0.6-0.6,1.1-1.2,1.6-1.7c0.4-0.4,0.8-0.8,1.2-1.1c0.2-0.3,0.4-0.2,0.6,0c3.1,2.3,6.3,4.6,9.4,7
			c0.4,0.3,0.7,0.5,1.2,0.8c-0.1,0.1-0.2,0.2-0.3,0.3c-0.9,0.9-1.8,1.7-2.6,2.6c-0.2,0.2-0.3,0.2-0.6,0c-3.4-2.5-6.9-5.1-10.3-7.6
			C63.2,30.3,63.1,30.2,63,30.2z"/>
		<path d="M54.2,38.8c0.7-0.7,1.3-1.4,2-2.1c0.2-0.2,0.5-0.5,0.8-0.7c0.2-0.3,0.4-0.2,0.7,0c2.1,1.6,4.3,3.2,6.4,4.8
			c1.2,0.9,2.5,1.8,3.7,2.8c0.1,0.1,0.2,0.2,0.3,0.3C68,43.8,68,43.9,67.9,44c-0.9,0.8-1.7,1.7-2.6,2.5c-0.2,0.2-0.4,0.2-0.6,0.1
			c-3.4-2.5-6.8-5-10.2-7.6C54.3,39,54.2,38.9,54.2,38.8L54.2,38.8z"/>
	</g>
</g>
</svg>
