<?xml version="1.0" encoding="utf-8"?>
<!-- Generator: Adobe Illustrator 27.5.0, SVG Export Plug-In . SVG Version: 6.00 Build 0)  -->
<svg version="1.1" id="Layer_2_00000178190690550876114340000010080395884980463263_"
	 xmlns="http://www.w3.org/2000/svg" xmlns:xlink="http://www.w3.org/1999/xlink" x="0px" y="0px" viewBox="0 0 112.6 112.6"
	 style="enable-background:new 0 0 112.6 112.6;" xml:space="preserve">
<g id="Layer_1-2">
	<path d="M56.3,0C25.2,0,0,25.2,0,56.3s25.2,56.3,56.3,56.3s56.3-25.2,56.3-56.3S87.4,0,56.3,0z M15.7,34v-2.2C24,18.2,39,9,56.2,9
		s32.2,9.1,40.3,22.6v3.7l-0.4,1.2l-0.3,1.2c-0.1,0.4-0.4,0.8-0.8,1.1l-3.3,2.1c-0.1,0.1-0.3,0.2-0.3,0.4v0c0,0.2-0.1,0.4-0.3,0.5
		l-1,0.2c-0.2,0-0.3,0.1-0.3,0.2l-0.1,0.2c-0.1,0.2-0.2,0.2-0.4,0.3l-26.5,2.9h-0.1c-1.9-0.9-4.1-1.7-6.5-1.7s-4.6,0.6-6.5,1.7
		l-26.6-3c-0.1,0-0.3-0.1-0.3-0.2l-0.1-0.2c-0.1-0.1-0.2-0.2-0.4-0.2l-1-0.2c-0.2,0-0.4-0.2-0.4-0.5c0-0.2-0.1-0.4-0.2-0.5l-3.2-2.2
		c-0.3-0.2-0.5-0.5-0.6-0.9l-0.3-1.2c0-0.1-0.1-0.2-0.1-0.3L16,35.8c-0.1-0.3-0.3-0.6-0.3-1L15.7,34L15.7,34z M89.7,47.9
		C89.7,47.9,89.6,48,89.7,47.9c-0.1,0-11.8,4.1-15.5,4.8c-0.1,0-0.5-0.1-0.5-0.1c-0.8-0.2-1.1-1.1-0.6-1.7c0.1-0.2,0.3-0.3,0.4-0.3
		L89,46.8c0.1,0,0.3,0,0.4,0C90,46.8,90.2,47.7,89.7,47.9L89.7,47.9z M67.9,56.8c0,0.7-0.6,1.3-1.3,1.3s-1.3-0.6-1.3-1.3
		s0.6-1.3,1.3-1.3S67.9,56.1,67.9,56.8z M56.3,48.5c4.5,0,8.1,3.6,8.1,8.1s-3.6,8.1-8.1,8.1s-8.1-3.6-8.1-8.1S51.9,48.5,56.3,48.5z
		 M50.2,47.8c0-0.7,0.6-1.3,1.3-1.3s1.3,0.6,1.3,1.3s-0.6,1.3-1.3,1.3S50.2,48.6,50.2,47.8z M60.2,48.1c0-0.7,0.6-1.3,1.3-1.3
		s1.3,0.6,1.3,1.3s-0.6,1.3-1.3,1.3S60.2,48.8,60.2,48.1z M47.6,56.4c0,0.7-0.6,1.3-1.3,1.3S45,57.1,45,56.4s0.6-1.3,1.3-1.3
		S47.6,55.7,47.6,56.4z M39.1,52.3c0,0-0.4,0.1-0.5,0.1c-3.7-0.7-15.4-4.8-15.4-4.8c0,0,0,0-0.1,0c-0.6-0.2-0.4-1.1,0.2-1.1
		c0.1,0,0.2,0,0.4,0l15.6,3.8c0.1,0,0.2,0.2,0.4,0.3C40.2,51.2,39.9,52.1,39.1,52.3L39.1,52.3z M52,92.8L52,92.8
		c-0.1,0.2-0.2,0.3-0.2,0.5l-1,4.5c-0.3,1-0.9,1.9-1.7,2.7l-0.9,0.8l-2.4,0.3l-1.2,0.6C24.2,96.9,9,78.4,9,56.3c0-0.3,0-0.6,0-0.9
		l1-0.5c0.3-0.2,0.6-0.4,0.8-0.7l0.3-0.5c0.4-0.6,0.9-1,1.4-1.4c0.7-0.4,1.5-0.7,2.3-0.7l5.1-0.1c0.1,0,0.2,0,0.2-0.1l0.2-0.2
		c0.1-0.1,0.3-0.1,0.5-0.1L40.5,60l3.6,2.2l0.8,0.5c1.7,1,2.8,2.7,3.1,4.6l0,0.1L52.2,92C52.2,92.3,52.2,92.6,52,92.8L52,92.8z
		 M51.2,66.5c-0.7,0-1.3-0.6-1.3-1.3s0.6-1.3,1.3-1.3s1.3,0.6,1.3,1.3S51.9,66.5,51.2,66.5z M56.8,91.1
		C56.8,91.1,56.8,91.2,56.8,91.1c-0.1,0.7-1,0.7-1.2,0.2c0-0.1-0.1-0.2-0.1-0.4l-0.3-16.1c0-0.1,0.1-0.3,0.2-0.4
		c0.5-0.6,1.5-0.5,1.8,0.2c0,0,0.2,0.3,0.2,0.5C57.8,78.8,56.8,91.1,56.8,91.1L56.8,91.1z M60,65.3c0-0.7,0.6-1.3,1.3-1.3
		s1.3,0.6,1.3,1.3s-0.6,1.3-1.3,1.3S60,66,60,65.3z M68,102.1l-1.2-0.6l-2.4-0.3l-0.9-0.8c-0.8-0.7-1.4-1.6-1.7-2.7l0,0l-1-4.5
		c0-0.2-0.1-0.3-0.2-0.4l0-0.1c-0.2-0.2-0.2-0.6-0.2-0.9l4.2-24.6l0,0c0.3-1.9,1.5-3.6,3.1-4.6l0.7-0.4l3.8-2.3l19.6-8.7
		c0.1-0.1,0.3,0,0.4,0l0.1,0.1c0.2,0.1,0.3,0.2,0.5,0.2l5.4,0.1c0.5,0,1.1,0.2,1.5,0.4l0.7,0.4c0.4,0.2,0.7,0.5,0.9,0.9l0.8,1.3
		l1.5,0.7c0,0.3,0,0.6,0,0.9C103.6,78.3,88.5,96.9,68,102.1L68,102.1z"/>
</g>
</svg>
