<?xml version="1.0" encoding="utf-8"?>
<!-- Generator: Adobe Illustrator 27.5.0, SVG Export Plug-In . SVG Version: 6.00 Build 0)  -->
<svg version="1.1" id="Layer_2_00000133530052191088306350000015344597464150706070_"
	 xmlns="http://www.w3.org/2000/svg" xmlns:xlink="http://www.w3.org/1999/xlink" x="0px" y="0px" viewBox="0 0 122.5 106.1"
	 style="enable-background:new 0 0 122.5 106.1;" xml:space="preserve">
<style type="text/css">
	.st0{fill-rule:evenodd;clip-rule:evenodd;}
</style>
<g id="Layer_1-2">
	<g>
		<path class="st0" d="M41.8,0.7c-1.5,0.2-2.3,1-2.7,1.5l-6.9,8.3h-8c-0.9,0-1.9,0.7-2.1,1.6l-0.7,2.7c-0.1,0.4,0.1,0.5,0.5,0.6
			l4.6,2l-1.9,2.2c-1.1,1.4-1.7,3.3-1.6,5.6v14.8h-5.3v4.7h5.3v2.8c0,0.9,0.8,1.7,1.7,1.7h12.5c0.9,0,1.7-0.8,1.7-1.7v-4.4h45v4.4
			c0,0.9,0.8,1.7,1.7,1.7H98c0.9,0,1.7-0.8,1.7-1.7v-2.8h5.3v-4.7h-5.3V25.3c0-2.4-0.5-4.2-1.7-5.6l-1.9-2.2l4.6-2
			c0.3-0.1,0.6-0.3,0.5-0.6l-0.7-2.7c-0.2-0.9-1.2-1.6-2.1-1.6h-8.1l-6.9-8.3c-0.4-0.4-1.2-1.3-2.7-1.5C65.5-0.2,57-0.3,41.8,0.7
			L41.8,0.7L41.8,0.7z M33.7,16.1c-0.7,0.1-0.8-0.4-0.5-0.8l8.5-10.3C42,4.6,42.4,4.4,43,4.3c15-1,21.5-0.9,36.5,0
			c0.6,0.1,1,0.3,1.4,0.8l8.5,10.3c0.3,0.4,0.2,0.9-0.5,0.8C67.6,15,54.9,14.9,33.7,16.1L33.7,16.1L33.7,16.1z M28.4,22.2l11.1,1.3
			c1.4,0.2,2.6,1.2,2.6,2.6v2c0,0.4-0.3,0.7-0.7,0.7l-11.1-0.4c-1.6-0.1-3-1.4-3-3v-2.2C27.3,22.7,27.8,22.1,28.4,22.2L28.4,22.2
			L28.4,22.2z M94.1,22.2c0.6-0.1,1.1,0.5,1.1,1v2.2c0,1.6-1.3,2.9-3,3l-11.1,0.4c-0.4,0-0.7-0.3-0.7-0.7v-2c0-1.4,1.2-2.5,2.6-2.6
			L94.1,22.2L94.1,22.2z"/>
		<path class="st0" d="M122.5,100.2h-3.4V25c0-2.1-1.2-3.1-3.6-3h-9v78.3h-8l-5.1,3.4v2.4h29.1L122.5,100.2L122.5,100.2L122.5,100.2
			z M0,100.2h3.4V25C3.4,23,4.6,22,7,22h9v78.3h8l5.1,3.4v2.4H0V100.2L0,100.2z"/>
	</g>
</g>
</svg>
